<svg xmlns="http://www.w3.org/2000/svg" version="1.1" xmlns:xlink="http://www.w3.org/1999/xlink" xmlns:svgjs="http://svgjs.dev/svgjs" width="800" height="606"><svg id="SvgjsSvg1001" xmlns="http://www.w3.org/2000/svg" viewBox="0 0 800 606">
  <defs>
    <style>
      .cls-1 {
        fill: #fff;
      }

      .cls-2 {
        fill: #ca0629;
      }
    </style>
  </defs>
  <path class="cls-2" d="M345.56,0c151.14,0,302.29,0,453.43,0-.05,2.16-.15,4.33-.15,6.49,0,81.98,0,163.96,0,245.94v6.3h-453.13c0-2.53,0-4.66,0-6.8,0-78.15,0-156.3,0-234.45,0-5.83-.09-11.66-.14-17.49Z"></path>
  <path class="cls-1" d="M345.56,0c.05,5.83.13,11.66.14,17.49,0,78.15,0,156.3,0,234.45,0,2.14,0,4.27,0,6.8h453.13v-6.3c0-81.98,0-163.96,0-245.94,0-2.16.1-4.33.15-6.49.33.17.94.32.95.5.08,1.33.04,2.66.04,4v601.5c-265.17,0-530.33,0-795.5-.04-1.5,0-3-.63-4.49-.96,84.88.02,169.77.05,254.65.05,1.26,0,2.53-.29,3.77-.45v-258.46c-2.5,0-4.64,0-6.77,0-77.56,0-155.12,0-232.68,0-6.32,0-12.64-.09-18.97-.14,0-29,0-58,0-87,.66.04,1.33.11,1.99.11,84.03,0,168.06.01,252.09,0,1.43,0,2.86-.24,4.72-.41,0-2.52,0-4.66,0-6.79,0-66.81,0-133.62,0-200.43,0-17.16-.08-34.32-.12-51.48h86.89ZM798.65,346.4h-452.57v258.28h452.57v-258.28Z"></path>
  <path class="cls-2" d="M258.67,0c.04,17.16.12,34.32.12,51.48.01,66.81,0,133.62,0,200.43,0,2.14,0,4.27,0,6.79-1.85.17-3.29.41-4.72.41-84.03.02-168.06.01-252.09,0-.66,0-1.33-.07-1.99-.11,0-86.33,0-172.67,0-259,86.22,0,172.45,0,258.67,0Z"></path>
  <path class="cls-2" d="M0,346c6.32.05,12.64.13,18.97.14,77.56,0,155.12,0,232.68,0,2.14,0,4.27,0,6.77,0v258.46c-1.25.15-2.51.45-3.77.45-84.88,0-169.76-.03-254.65-.05v-259Z"></path>
  <path class="cls-2" d="M798.65,346.4v258.28h-452.57v-258.28h452.57Z"></path>
</svg><style>@media (prefers-color-scheme: light) { :root { filter: none; } }
@media (prefers-color-scheme: dark) { :root { filter: none; } }
</style></svg>